<svg xmlns="http://www.w3.org/2000/svg" version="1.1" xmlns:xlink="http://www.w3.org/1999/xlink" xmlns:svgjs="http://svgjs.dev/svgjs" width="128" height="128" viewBox="0 0 128 128"><g transform="matrix(0.8046875,0,0,0.8046875,12.141993023736319,10.603502441406249)"><svg viewBox="0 0 93 96" data-background-color="#0747b6" preserveAspectRatio="xMidYMid meet" height="132" width="128" xmlns="http://www.w3.org/2000/svg" xmlns:xlink="http://www.w3.org/1999/xlink"><g id="tight-bounds" transform="matrix(1,0,0,1,0.3232490174031284,0.25950000000000273)"><svg viewBox="0 0 92.35350196519374 95.481" height="95.481" width="92.35350196519374"><g><svg viewBox="0 0 92.35350196519374 95.481" height="95.481" width="92.35350196519374"><g><svg viewBox="0 0 92.35350196519374 95.481" height="95.481" width="92.35350196519374"><g id="textblocktransform"><svg viewBox="0 0 92.35350196519374 95.481" height="95.481" width="92.35350196519374" id="textblock"><g><svg viewBox="0 0 92.35350196519374 95.481" height="95.481" width="92.35350196519374"><g><svg viewBox="0 0 92.35350196519374 95.481" height="95.481" width="92.35350196519374"><g><svg xmlns="http://www.w3.org/2000/svg" xmlns:xlink="http://www.w3.org/1999/xlink" version="1.1" x="0" y="0" viewBox="1.5274706178553634 0 96.19152938214464 99.449" enable-background="new 0 0 100 100" xml:space="preserve" height="95.481" width="92.35350196519374" class="icon-icon-0" data-fill-palette-color="accent" id="icon-0"><path fill-rule="evenodd" clip-rule="evenodd" d="M71.567 15.476L59.975 0 19.417 29.243H35.77zM82.479 29.243L77.854 16.735 43.142 29.243zM84.913 27.716H91.553C93.452 27.716 94.674 29.196 94.674 31.089V52.287L97.666 50.792 97.636 29.495C97.636 27.595 94.98 24.664 93.08 24.664H83.701L84.761 27.518zM94.674 76.706V94.136C96.406 93.952 97.719 92.397 97.719 90.618L97.696 75.195zM7.939 27.716H16.723L20.981 24.664H11.015L11.084 24.641C3.712 24.634 1.46 24.718 1.529 33.89V95.93C1.529 97.831 3.422 99.449 5.322 99.449H88.501C90.4 99.449 92.309 97.884 92.309 95.992L92.302 79.426 91.935 79.609H84.304C77.558 79.609 72.093 74.145 72.093 67.399S77.558 55.19 84.304 55.19H91.935L92.293 55.006 92.285 34.218C92.285 32.318 90.4 30.769 88.501 30.769H11.008A5.5 5.5 0 0 1 10.252 30.708H8.374A1.53 1.53 0 0 1 6.848 29.182 1.52 1.52 0 0 1 7.939 27.716M91.935 58.24H84.304A9.154 9.154 0 0 0 75.146 67.397 9.155 9.155 0 0 0 84.304 76.554H91.935L97.673 71.739 97.65 53.547zM79.725 67.397A4.58 4.58 0 0 1 84.304 62.82 4.58 4.58 0 0 1 88.882 67.397 4.583 4.583 0 0 1 84.304 71.976 4.58 4.58 0 0 1 79.725 67.397" fill="#2266da" data-fill-palette-color="accent"></path></svg></g></svg></g></svg></g></svg></g></svg></g></svg></g><defs></defs></svg><rect width="92.35350196519374" height="95.481" fill="none" stroke="none" visibility="hidden"></rect></g></svg></g></svg>