<svg xmlns="http://www.w3.org/2000/svg" version="1.1" xmlns:xlink="http://www.w3.org/1999/xlink" xmlns:svgjs="http://svgjs.dev/svgjs" width="1500" height="1500" viewBox="0 0 1500 1500"><rect width="1500" height="1500" fill="#ffffff"></rect><g transform="matrix(0.6666666666666666,0,0,0.6666666666666666,249.39393939393938,627.7886742791054)"><svg viewBox="0 0 396 96" data-background-color="#ffffff" preserveAspectRatio="xMidYMid meet" height="363" width="1500" xmlns="http://www.w3.org/2000/svg" xmlns:xlink="http://www.w3.org/1999/xlink"><g id="tight-bounds" transform="matrix(1,0,0,1,0.2400000000000091,0.4805259058094009)"><svg viewBox="0 0 395.52 95.03894818838121" height="95.03894818838121" width="395.52"><g><svg viewBox="0 0 589.552760094703 141.6628090133435" height="95.03894818838121" width="395.52"><g><rect width="9.252009125914217" height="141.6628090133435" x="419.7399191777859" y="0" fill="#000000" opacity="1" stroke-width="0" stroke="transparent" fill-opacity="1" class="rect-yte-0" data-fill-palette-color="primary" rx="1%" id="yte-0" data-palette-color="#1ebbd7"></rect></g><g transform="matrix(1,0,0,1,0,0.35239504729686644)"><svg viewBox="0 0 395.52 140.95801891874976" height="140.95801891874976" width="395.52"><g id="textblocktransform"><svg viewBox="0 0 395.52 140.95801891874976" height="140.95801891874976" width="395.52" id="textblock"><g><svg viewBox="0 0 395.52 102.59373751582501" height="102.59373751582501" width="395.52"><g transform="matrix(1,0,0,1,0,0)"><svg width="395.52" viewBox="1.32 -44.58 174.03 45.019999999999996" height="102.59373751582501" data-palette-color="#1ebbd7"><g class="wordmark-text-0" data-fill-palette-color="primary" id="text-0"><path d="M11.87 0L6.98 0 1.32-42.97 5.98-42.97 9.64-10.03 14.53-42.97 18.65-42.97 23.66-10.03 26.76-42.97 31.4-42.97 26.32 0 21.31 0 16.72-31.71 11.87 0ZM41.75 0.32L41.75 0.32Q38.43 0.32 36.96-2.26 35.5-4.83 35.47-9.4L35.47-9.4 35.47-12.96Q35.47-15.38 36.3-16.98 37.13-18.58 38.64-19.65 40.16-20.73 42.21-21.59 44.26-22.46 46.7-23.44L46.7-23.44 46.7-26.27Q46.7-28.61 46.56-30.07 46.41-31.52 45.81-32.2 45.21-32.89 43.89-32.89L43.89-32.89Q42.6-32.89 41.95-32.2 41.31-31.52 41.11-30.05 40.92-28.59 40.92-26.25L40.92-26.25 40.92-24.98 35.94-24.98 35.94-26.03Q35.94-28.37 36.23-30.38 36.52-32.4 37.35-33.89 38.18-35.38 39.78-36.22 41.38-37.06 43.99-37.06L43.99-37.06Q46.48-37.06 48.01-36.27 49.53-35.47 50.35-33.94 51.17-32.4 51.46-30.14 51.76-27.88 51.76-24.93L51.76-24.93 51.76 0 46.73 0 46.73-3.17Q46.51-2.44 45.87-1.62 45.24-0.81 44.21-0.24 43.19 0.32 41.75 0.32ZM43.16-3.74L43.16-3.74Q44.48-3.74 45.43-4.58 46.38-5.42 46.7-6.25L46.7-6.25 46.7-20.19Q44.82-19.36 43.61-18.69 42.4-18.02 41.73-17.29 41.06-16.55 40.79-15.53 40.52-14.5 40.52-12.94L40.52-12.94 40.52-9.55Q40.52-6.45 41.06-5.09 41.6-3.74 43.16-3.74ZM63.33 0L58.32 0 58.32-43.43 63.33-43.43 63.33 0ZM75.6 0L70.6 0 70.6-43.43 75.6-43.43 75.6 0ZM90.37 0.44L90.37 0.44Q87.73 0.44 86.14-0.48 84.54-1.39 83.71-3.08 82.88-4.76 82.59-7.12 82.31-9.47 82.31-12.33L82.31-12.33 82.31-25.27Q82.31-27.86 82.68-30.02 83.05-32.18 83.95-33.75 84.85-35.33 86.46-36.19 88.08-37.06 90.57-37.06L90.57-37.06Q93.08-37.06 94.62-36.18 96.16-35.3 96.95-33.7 97.74-32.1 98.01-29.9 98.28-27.69 98.28-25.05L98.28-25.05 98.28-18.14 87.34-18.14 87.34-10.84Q87.34-7.37 87.82-5.55 88.3-3.74 90.42-3.74L90.42-3.74Q91.81-3.74 92.41-4.6 93.01-5.47 93.14-7.04 93.28-8.62 93.28-10.77L93.28-10.77 93.28-13.72 98.18-13.72 98.18-12.16Q98.18-9.3 97.95-6.98 97.72-4.66 96.96-3 96.21-1.34 94.63-0.45 93.06 0.44 90.37 0.44ZM87.32-26.03L87.32-21.53 93.28-21.53 93.28-26.2Q93.28-28.39 93.13-29.9 92.98-31.4 92.42-32.17 91.86-32.93 90.57-32.93L90.57-32.93Q89.13-32.93 88.43-32.06 87.73-31.18 87.53-29.63 87.32-28.08 87.32-26.03L87.32-26.03ZM114.2 0.22L110.75 0.22Q108.41 0.22 107.21-0.34 106.02-0.9 105.6-2.15 105.19-3.39 105.19-5.44L105.19-5.44 105.19-32.62 101.84-32.62 101.84-36.33 105.19-36.33 105.19-42.97 110.19-42.97 110.19-36.33 114.15-36.33 114.15-32.62 110.19-32.62 110.19-5.88Q110.19-4.96 110.44-4.5 110.68-4.05 111.54-3.91 112.39-3.76 114.2-3.76L114.2-3.76 114.2 0.22ZM127.21 0L122.32 0 116.66-42.97 121.32-42.97 124.99-10.03 129.87-42.97 133.99-42.97 139-10.03 142.1-42.97 146.74-42.97 141.66 0 136.65 0 132.07-31.71 127.21 0ZM156.72 0L151.69 0 151.69-36.62 156.72-36.62 156.72 0ZM156.72-39.99L151.69-39.99 151.69-44.58 156.72-44.58 156.72-39.99ZM174.93 0L162.11 0 162.11-3.74 170.17-32.3 162.72-32.3 162.72-36.62 175.35-36.62 175.35-33.18 167.27-4.27 174.93-4.27 174.93 0Z" fill="#000000" data-fill-palette-color="primary"></path></g></svg></g></svg></g><g transform="matrix(1,0,0,1,163.31020799999996,126.81365669361092)"><svg viewBox="0 0 232.20979200000002 14.14436222513882" height="14.14436222513882" width="232.20979200000002"><g transform="matrix(1,0,0,1,0,0)"><svg width="232.20979200000002" viewBox="0.5 -39.35 891.36 54.300000000000004" height="14.14436222513882" data-palette-color="#1ebbd7"><path d="M37.8-37.5L37.8-36.55 37.5-36.55Q36.55-36.55 36.35-36.25L36.35-36.25 22.9-16.95 22.9-1.5Q22.9-1.25 23.33-1.1 23.75-0.95 24.15-0.95L24.15-0.95 24.15 0 14.35 0 14.35-0.95Q14.75-0.95 15.18-1.1 15.6-1.25 15.6-1.5L15.6-1.5 15.6-16.65 1.95-36.25Q1.8-36.45 1.33-36.5 0.85-36.55 0.5-36.55L0.5-36.55 0.5-37.5 10.8-37.5 10.8-36.55Q10.2-36.55 10.2-36.3L10.2-36.3Q10.2-36.1 10.35-35.85L10.35-35.85 19.05-23.6 27.65-35.85 27.75-36.05Q27.75-36.3 27.48-36.43 27.2-36.55 26.7-36.55L26.7-36.55 26.7-37.5 37.8-37.5ZM52.55 0.6Q48.85 0.6 46.02-0.98 43.2-2.55 41.62-5.3 40.05-8.05 40.05-11.5L40.05-11.5Q40.05-14.9 41.62-17.7 43.2-20.5 46.05-22.13 48.9-23.75 52.55-23.75L52.55-23.75Q56.05-23.75 58.9-22.18 61.75-20.6 63.4-17.82 65.05-15.05 65.05-11.5L65.05-11.5Q65.05-8.4 63.57-5.63 62.1-2.85 59.25-1.13 56.4 0.6 52.55 0.6L52.55 0.6ZM52.55-5.15Q55.5-5.15 57.32-6.88 59.15-8.6 59.15-11.35L59.15-11.35Q59.15-14.2 57.32-16.05 55.5-17.9 52.55-17.9L52.55-17.9Q49.8-17.9 47.95-16.07 46.1-14.25 46.1-11.5L46.1-11.5Q46.1-8.6 47.95-6.88 49.8-5.15 52.55-5.15L52.55-5.15ZM91.6-21.5L91.6-1.5Q91.6-1.25 91.97-1.1 92.35-0.95 92.7-0.95L92.7-0.95 92.7 0 86.5 0 86.5-1.85Q83.85 0.45 80.35 0.45L80.35 0.45Q75.1 0.45 72.65-2.58 70.2-5.6 70.2-10.15L70.2-10.15 70.2-21.5Q70.2-21.75 69.82-21.9 69.45-22.05 69.1-22.05L69.1-22.05 69.1-23 77.6-23 77.6-22.05Q77.25-22.05 76.87-21.9 76.5-21.75 76.5-21.5L76.5-21.5 76.5-10.55Q76.5-8.4 77.6-6.93 78.7-5.45 81-5.45L81-5.45Q83.2-5.45 84.3-6.8 85.4-8.15 85.4-10.25L85.4-10.25 85.4-21.5Q85.4-21.75 85.02-21.9 84.65-22.05 84.3-22.05L84.3-22.05 84.3-23 92.7-23 92.7-22.05Q92.35-22.05 91.97-21.9 91.6-21.75 91.6-21.5L91.6-21.5ZM111.74-24.5L112.69-24.5 112.69-16.45 111.74-16.45Q111.74-16.8 111.59-17.25 111.44-17.7 111.19-17.75L111.19-17.75 110.84-17.75Q109.29-17.75 107.72-16.88 106.14-16 105.12-14.58 104.09-13.15 104.09-11.55L104.09-11.55 104.09-1.5Q104.09-1.25 104.47-1.1 104.84-0.95 105.19-0.95L105.19-0.95 105.19 0 96.79 0 96.79-0.95Q97.14-0.95 97.52-1.1 97.89-1.25 97.89-1.5L97.89-1.5 97.89-21.5Q97.89-21.75 97.52-21.9 97.14-22.05 96.79-22.05L96.79-22.05 96.79-23 104.09-23 104.09-20.85Q105.44-22.1 107.34-22.85 109.24-23.6 111.14-23.6L111.14-23.6 111.19-23.6 111.24-23.6Q111.49-23.6 111.62-23.9 111.74-24.2 111.74-24.5L111.74-24.5ZM173.29-36L173.29-1.5Q173.29-1.25 173.66-1.1 174.04-0.95 174.44-0.95L174.44-0.95 174.44 0 165.69 0 165.69-0.95Q166.09-0.95 166.46-1.1 166.84-1.25 166.84-1.5L166.84-1.5 166.84-30.15 152.19 1.9 137.59-30.25 137.59-1.5Q137.59-1.25 137.96-1.1 138.34-0.95 138.74-0.95L138.74-0.95 138.74 0 129.94 0 129.94-0.95Q130.34-0.95 130.71-1.1 131.09-1.25 131.09-1.5L131.09-1.5 131.09-36Q131.09-36.25 130.71-36.4 130.34-36.55 129.99-36.55L129.99-36.55 129.99-37.5 142.89-37.5 142.89-36.55Q142.29-36.55 142.11-36.27 141.94-36 142.09-35.65L142.09-35.65 152.24-12.05 162.54-35.65Q162.64-35.95 162.24-36.25 161.84-36.55 161.24-36.55L161.24-36.55 161.24-37.5 174.39-37.5 174.39-36.55Q174.04-36.55 173.66-36.4 173.29-36.25 173.29-36L173.29-36ZM206.29-23L206.29-22.05Q205.94-22.05 205.56-21.9 205.19-21.75 205.19-21.5L205.19-21.5 205.19-1.5Q205.19-1.25 205.56-1.1 205.94-0.95 206.29-0.95L206.29-0.95 206.29 0 198.89 0 198.89-2.75Q195.74 0.65 190.94 0.65L190.94 0.65Q187.29 0.65 184.51-0.83 181.74-2.3 180.21-5.05 178.69-7.8 178.69-11.45L178.69-11.45Q178.69-15 180.36-17.78 182.04-20.55 184.84-22.08 187.64-23.6 190.94-23.6L190.94-23.6Q195.74-23.6 198.89-19.9L198.89-19.9 198.89-23 206.29-23ZM191.69-4.65Q193.74-4.65 195.36-5.58 196.99-6.5 197.89-8.03 198.79-9.55 198.79-11.3L198.79-11.3Q198.79-14.3 196.81-16.25 194.84-18.2 191.69-18.2L191.69-18.2Q188.64-18.2 186.66-16.3 184.69-14.4 184.69-11.45L184.69-11.45Q184.69-8.35 186.71-6.5 188.74-4.65 191.69-4.65L191.69-4.65ZM230.28-23L237.63-23 237.63-22.05Q237.28-22.05 236.91-21.9 236.53-21.75 236.53-21.5L236.53-21.5 236.58 1.85Q236.58 8.1 232.98 11.53 229.38 14.95 223.18 14.95L223.18 14.95Q220.63 14.95 217.78 13.53 214.93 12.1 212.53 9.3L212.53 9.3Q212.48 9.15 212.23 9.15L212.23 9.15Q211.83 9.15 211.38 9.5L211.38 9.5 210.83 8.75 217.08 3.8 217.68 4.55Q217.43 4.75 217.21 5.1 216.98 5.45 217.13 5.7L217.13 5.7Q218.38 7.45 219.83 8.3 221.28 9.15 223.33 9.15L223.33 9.15Q226.58 9.15 228.43 7.58 230.28 6 230.28 2.8L230.28 2.8 230.28-1.75Q227.13 0.7 223.03 0.7L223.03 0.7Q219.33 0.7 216.46-0.83 213.58-2.35 211.96-5.13 210.33-7.9 210.33-11.5L210.33-11.5Q210.33-15.1 212.03-17.82 213.73-20.55 216.63-22.03 219.53-23.5 223.03-23.5L223.03-23.5Q227.23-23.5 230.28-21.2L230.28-21.2 230.28-23ZM223.33-4.65Q226.73-4.65 228.58-6.48 230.43-8.3 230.43-11.3L230.43-11.3Q230.43-14.3 228.43-16.25 226.43-18.2 223.33-18.2L223.33-18.2Q220.33-18.2 218.36-16.3 216.38-14.4 216.38-11.4L216.38-11.4Q216.38-8.3 218.38-6.48 220.38-4.65 223.33-4.65L223.33-4.65ZM247.48-27.2Q245.88-27.2 244.76-28.3 243.63-29.4 243.63-31.05L243.63-31.05Q243.63-32.6 244.76-33.73 245.88-34.85 247.48-34.85L247.48-34.85Q249.08-34.85 250.18-33.73 251.28-32.6 251.28-31.05L251.28-31.05Q251.28-29.4 250.18-28.3 249.08-27.2 247.48-27.2L247.48-27.2ZM244.23-21.5Q244.23-21.75 243.86-21.9 243.48-22.05 243.13-22.05L243.13-22.05 243.13-23 251.73-23 251.73-22.05Q251.38-22.05 251.01-21.9 250.63-21.75 250.63-21.5L250.63-21.5 250.63-1.5Q250.63-1.25 251.01-1.1 251.38-0.95 251.73-0.95L251.73-0.95 251.73 0 243.13 0 243.13-0.95Q243.48-0.95 243.86-1.1 244.23-1.25 244.23-1.5L244.23-1.5 244.23-21.5ZM268.43 1.05Q265.23 1.05 262.48-0.55 259.73-2.15 258.1-4.9 256.48-7.65 256.48-10.9L256.48-10.9Q256.48-14.75 258.1-17.68 259.73-20.6 262.48-22.18 265.23-23.75 268.53-23.75L268.53-23.75Q270.88-23.75 272.55-23.2 274.23-22.65 275.25-21.88 276.28-21.1 277.83-19.7L277.83-19.7Q277.93-19.6 278.08-19.6L278.08-19.6Q278.28-19.6 278.55-19.75 278.83-19.9 278.98-20.05L278.98-20.05 279.63-19.35 274.23-14.35 273.58-15.05Q273.83-15.25 274-15.63 274.18-16 274.03-16.2L274.03-16.2Q272.23-18.4 269.08-18.4L269.08-18.4Q266.23-18.4 264.3-16.5 262.38-14.6 262.38-11.55L262.38-11.55Q262.38-8.4 264.23-6.5 266.08-4.6 269.08-4.6L269.08-4.6Q270.58-4.6 271.53-4.98 272.48-5.35 273.68-6.4L273.68-6.4Q273.78-6.5 273.78-6.65L273.78-6.65Q273.78-6.95 273.43-7.3L273.43-7.3 274.03-8.05 279.43-3.55 278.83-2.85Q278.03-3.3 277.73-3L277.73-3Q275.88-0.95 273.85 0.05 271.83 1.05 268.43 1.05L268.43 1.05ZM326.32-38.5L327.27-38.5 327.27-30.8 326.32-30.8Q326.32-31.1 326.17-31.45 326.02-31.8 325.77-31.8L325.77-31.8 314.62-31.8 314.62-1.5Q314.62-1.25 315.02-1.1 315.42-0.95 315.82-0.95L315.82-0.95 315.82 0 306.62 0 306.62-0.95Q307.02-0.95 307.42-1.1 307.82-1.25 307.82-1.5L307.82-1.5 307.82-31.8 296.62-31.8Q296.37-31.8 296.22-31.45 296.07-31.1 296.07-30.8L296.07-30.8 295.12-30.8 295.12-38.5 296.07-38.5Q296.07-38.2 296.22-37.85 296.37-37.5 296.62-37.5L296.62-37.5 325.77-37.5Q326.02-37.5 326.17-37.85 326.32-38.2 326.32-38.5L326.32-38.5ZM342.27 0.6Q338.57 0.6 335.75-0.98 332.92-2.55 331.35-5.3 329.77-8.05 329.77-11.5L329.77-11.5Q329.77-14.9 331.35-17.7 332.92-20.5 335.77-22.13 338.62-23.75 342.27-23.75L342.27-23.75Q345.77-23.75 348.62-22.18 351.47-20.6 353.12-17.82 354.77-15.05 354.77-11.5L354.77-11.5Q354.77-8.4 353.3-5.63 351.82-2.85 348.97-1.13 346.12 0.6 342.27 0.6L342.27 0.6ZM342.27-5.15Q345.22-5.15 347.05-6.88 348.87-8.6 348.87-11.35L348.87-11.35Q348.87-14.2 347.05-16.05 345.22-17.9 342.27-17.9L342.27-17.9Q339.52-17.9 337.67-16.07 335.82-14.25 335.82-11.5L335.82-11.5Q335.82-8.6 337.67-6.88 339.52-5.15 342.27-5.15L342.27-5.15ZM370.77 0.6Q367.07 0.6 364.24-0.98 361.42-2.55 359.84-5.3 358.27-8.05 358.27-11.5L358.27-11.5Q358.27-14.9 359.84-17.7 361.42-20.5 364.27-22.13 367.12-23.75 370.77-23.75L370.77-23.75Q374.27-23.75 377.12-22.18 379.97-20.6 381.62-17.82 383.27-15.05 383.27-11.5L383.27-11.5Q383.27-8.4 381.79-5.63 380.32-2.85 377.47-1.13 374.62 0.6 370.77 0.6L370.77 0.6ZM370.77-5.15Q373.72-5.15 375.54-6.88 377.37-8.6 377.37-11.35L377.37-11.35Q377.37-14.2 375.54-16.05 373.72-17.9 370.77-17.9L370.77-17.9Q368.02-17.9 366.17-16.07 364.32-14.25 364.32-11.5L364.32-11.5Q364.32-8.6 366.17-6.88 368.02-5.15 370.77-5.15L370.77-5.15ZM388.47-36Q388.47-36.25 388.09-36.4 387.72-36.55 387.32-36.55L387.32-36.55 387.32-37.5 396.12-37.5 396.12-36.55Q395.72-36.55 395.34-36.4 394.97-36.25 394.97-36L394.97-36 394.97-1.5Q394.97-1.25 395.34-1.1 395.72-0.95 396.12-0.95L396.12-0.95 396.12 0 387.32 0 387.32-0.95Q387.72-0.95 388.09-1.1 388.47-1.25 388.47-1.5L388.47-1.5 388.47-36ZM427.46-23.85L428.41-23.85 428.41-16.5 427.46-16.5Q427.46-16.8 427.31-17.13 427.16-17.45 426.91-17.45L426.91-17.45 423.31-17.45 423.31-1.5Q423.31-1.25 423.66-1.1 424.01-0.95 424.31-0.95L424.31-0.95 424.31 0 416.56 0 416.56-0.95Q416.86-0.95 417.21-1.1 417.56-1.25 417.56-1.5L417.56-1.5 417.56-17.45 415.16-17.45Q414.91-17.45 414.76-17.13 414.61-16.8 414.61-16.5L414.61-16.5 413.66-16.5 413.66-23.85 414.61-23.85Q414.61-23.55 414.76-23.23 414.91-22.9 415.16-22.9L415.16-22.9 417.56-22.9 417.56-30.4Q417.56-33.75 419.66-35.83 421.76-37.9 425.36-38.05L425.36-38.05Q425.61-38.05 425.74-38.4 425.86-38.75 425.86-39.1L425.86-39.1 426.81-39.2 427.26-30.45 426.31-30.4Q426.31-30.8 426.14-31.18 425.96-31.55 425.66-31.55L425.66-31.55Q424.51-31.35 423.91-30.58 423.31-29.8 423.31-28.75L423.31-28.75 423.31-22.9 426.91-22.9Q427.16-22.9 427.31-23.23 427.46-23.55 427.46-23.85L427.46-23.85ZM443.91 0.6Q440.21 0.6 437.38-0.98 434.56-2.55 432.98-5.3 431.41-8.05 431.41-11.5L431.41-11.5Q431.41-14.9 432.98-17.7 434.56-20.5 437.41-22.13 440.26-23.75 443.91-23.75L443.91-23.75Q447.41-23.75 450.26-22.18 453.11-20.6 454.76-17.82 456.41-15.05 456.41-11.5L456.41-11.5Q456.41-8.4 454.93-5.63 453.46-2.85 450.61-1.13 447.76 0.6 443.91 0.6L443.91 0.6ZM443.91-5.15Q446.86-5.15 448.68-6.88 450.51-8.6 450.51-11.35L450.51-11.35Q450.51-14.2 448.68-16.05 446.86-17.9 443.91-17.9L443.91-17.9Q441.16-17.9 439.31-16.07 437.46-14.25 437.46-11.5L437.46-11.5Q437.46-8.6 439.31-6.88 441.16-5.15 443.91-5.15L443.91-5.15ZM474.91-24.5L475.86-24.5 475.86-16.45 474.91-16.45Q474.91-16.8 474.76-17.25 474.61-17.7 474.36-17.75L474.36-17.75 474.01-17.75Q472.46-17.75 470.88-16.88 469.31-16 468.28-14.58 467.26-13.15 467.26-11.55L467.26-11.55 467.26-1.5Q467.26-1.25 467.63-1.1 468.01-0.95 468.36-0.95L468.36-0.95 468.36 0 459.96 0 459.96-0.95Q460.31-0.95 460.68-1.1 461.06-1.25 461.06-1.5L461.06-1.5 461.06-21.5Q461.06-21.75 460.68-21.9 460.31-22.05 459.96-22.05L459.96-22.05 459.96-23 467.26-23 467.26-20.85Q468.61-22.1 470.51-22.85 472.41-23.6 474.31-23.6L474.31-23.6 474.36-23.6 474.41-23.6Q474.66-23.6 474.78-23.9 474.91-24.2 474.91-24.5L474.91-24.5ZM508.35 0.95Q504.05 0.95 500.35-1.07 496.65-3.1 493.2-6.65L493.2-6.65Q493.1-6.75 492.95-6.75L492.95-6.75Q492.5-6.75 491.95-6.2L491.95-6.2 491.3-6.9 498.25-13.45 498.9-12.75Q498.6-12.5 498.35-12.05 498.1-11.6 498.25-11.4L498.25-11.4Q502.9-5.5 508.4-5.5L508.4-5.5Q510.3-5.5 511.83-6.25 513.35-7 514.2-8.18 515.05-9.35 515.05-10.6L515.05-10.6Q515.05-13.55 509.9-15.45L509.9-15.45 503.75-17.75Q500.05-19.1 497.98-21.45 495.9-23.8 495.9-27.1L495.9-27.1Q495.9-30.35 497.43-32.77 498.95-35.2 501.75-36.5 504.55-37.8 508.25-37.8L508.25-37.8Q511.75-37.8 514.13-36.73 516.5-35.65 519.2-33.45L519.2-33.45Q519.25-33.4 519.4-33.4L519.4-33.4Q519.65-33.4 519.98-33.58 520.3-33.75 520.5-33.95L520.5-33.95 521.15-33.3 514.95-27.2 514.3-27.9Q514.55-28.15 514.68-28.48 514.8-28.8 514.6-28.95L514.6-28.95Q511.35-31.55 508.15-31.55L508.15-31.55Q505.6-31.55 504.1-30.38 502.6-29.2 502.6-27.4L502.6-27.4Q502.6-25.8 503.43-24.95 504.25-24.1 505.95-23.5L505.95-23.5 512-21.3Q515.15-20.15 517.25-18.88 519.35-17.6 520.6-15.53 521.85-13.45 521.85-10.35L521.85-10.35Q521.85-7.35 520.27-4.78 518.7-2.2 515.63-0.63 512.55 0.95 508.35 0.95L508.35 0.95ZM563.2-13.45L563.2-1.5Q563.2-1.25 563.57-1.1 563.95-0.95 564.35-0.95L564.35-0.95 564.35 0 555.55 0 555.55-0.95Q555.95-0.95 556.32-1.1 556.7-1.25 556.7-1.5L556.7-1.5 556.7-11.9Q556.7-18.1 552.6-18.1L552.6-18.1Q550.6-18.1 549.5-16.45 548.4-14.8 548.4-11.5L548.4-11.5 548.4-1.5Q548.4-1.25 548.77-1.1 549.15-0.95 549.55-0.95L549.55-0.95 549.55 0 540.8 0 540.8-0.95Q541.2-0.95 541.57-1.1 541.95-1.25 541.95-1.5L541.95-1.5 541.95-11.9Q541.95-14.65 541.1-16.38 540.25-18.1 537.95-18.1L537.95-18.1Q536.15-18.1 535.07-16.78 534-15.45 533.8-12.8L533.8-12.8 533.8-1.5Q533.8-1.25 534.2-1.1 534.6-0.95 534.95-0.95L534.95-0.95 534.95 0 526.05 0 526.05-0.95Q526.4-0.95 526.8-1.1 527.2-1.25 527.2-1.5L527.2-1.5 527.2-21.5Q527.2-21.75 526.82-21.9 526.45-22.05 526.1-22.05L526.1-22.05 526.1-23 533.8-23 533.8-21.65Q535.8-23.5 538.9-23.5L538.9-23.5Q541.7-23.5 543.72-22.43 545.75-21.35 546.9-19.45L546.9-19.45Q547.8-21.3 549.67-22.4 551.55-23.5 553.9-23.5L553.9-23.5Q558.6-23.5 560.9-20.7 563.2-17.9 563.2-13.45L563.2-13.45ZM595.99-23L595.99-22.05Q595.64-22.05 595.27-21.9 594.89-21.75 594.89-21.5L594.89-21.5 594.89-1.5Q594.89-1.25 595.27-1.1 595.64-0.95 595.99-0.95L595.99-0.95 595.99 0 588.59 0 588.59-2.75Q585.44 0.65 580.64 0.65L580.64 0.65Q576.99 0.65 574.22-0.83 571.44-2.3 569.92-5.05 568.39-7.8 568.39-11.45L568.39-11.45Q568.39-15 570.07-17.78 571.74-20.55 574.54-22.08 577.34-23.6 580.64-23.6L580.64-23.6Q585.44-23.6 588.59-19.9L588.59-19.9 588.59-23 595.99-23ZM581.39-4.65Q583.44-4.65 585.07-5.58 586.69-6.5 587.59-8.03 588.49-9.55 588.49-11.3L588.49-11.3Q588.49-14.3 586.52-16.25 584.54-18.2 581.39-18.2L581.39-18.2Q578.34-18.2 576.37-16.3 574.39-14.4 574.39-11.45L574.39-11.45Q574.39-8.35 576.42-6.5 578.44-4.65 581.39-4.65L581.39-4.65ZM615.04-24.5L615.99-24.5 615.99-16.45 615.04-16.45Q615.04-16.8 614.89-17.25 614.74-17.7 614.49-17.75L614.49-17.75 614.14-17.75Q612.59-17.75 611.02-16.88 609.44-16 608.42-14.58 607.39-13.15 607.39-11.55L607.39-11.55 607.39-1.5Q607.39-1.25 607.77-1.1 608.14-0.95 608.49-0.95L608.49-0.95 608.49 0 600.09 0 600.09-0.95Q600.44-0.95 600.82-1.1 601.19-1.25 601.19-1.5L601.19-1.5 601.19-21.5Q601.19-21.75 600.82-21.9 600.44-22.05 600.09-22.05L600.09-22.05 600.09-23 607.39-23 607.39-20.85Q608.74-22.1 610.64-22.85 612.54-23.6 614.44-23.6L614.44-23.6 614.49-23.6 614.54-23.6Q614.79-23.6 614.92-23.9 615.04-24.2 615.04-24.5L615.04-24.5ZM631.49-24L632.44-24 632.44-16.4 631.49-16.4Q631.49-16.75 631.34-17.07 631.19-17.4 630.94-17.4L630.94-17.4 627.69-17.4 627.69-1.5Q627.69-1.25 628.04-1.1 628.39-0.95 628.74-0.95L628.74-0.95 628.74 0 620.59 0 620.59-0.95Q620.94-0.95 621.29-1.1 621.64-1.25 621.64-1.5L621.64-1.5 621.64-17.4 619.24-17.4Q618.99-17.4 618.84-17.07 618.69-16.75 618.69-16.4L618.69-16.4 617.74-16.4 617.74-24 618.69-24Q618.69-23.65 618.84-23.33 618.99-23 619.24-23L619.24-23 621.64-23 621.64-28.85Q621.64-29.1 621.29-29.25 620.94-29.4 620.59-29.4L620.59-29.4 620.59-30.35 628.74-30.35 628.74-29.4Q628.39-29.4 628.04-29.25 627.69-29.1 627.69-28.85L627.69-28.85 627.69-23 630.94-23Q631.19-23 631.34-23.33 631.49-23.65 631.49-24L631.49-24ZM665.18 0.95Q660.88 0.95 657.18-1.07 653.48-3.1 650.03-6.65L650.03-6.65Q649.93-6.75 649.78-6.75L649.78-6.75Q649.33-6.75 648.78-6.2L648.78-6.2 648.13-6.9 655.08-13.45 655.73-12.75Q655.43-12.5 655.18-12.05 654.93-11.6 655.08-11.4L655.08-11.4Q659.73-5.5 665.23-5.5L665.23-5.5Q667.13-5.5 668.66-6.25 670.18-7 671.03-8.18 671.88-9.35 671.88-10.6L671.88-10.6Q671.88-13.55 666.73-15.45L666.73-15.45 660.58-17.75Q656.88-19.1 654.81-21.45 652.73-23.8 652.73-27.1L652.73-27.1Q652.73-30.35 654.26-32.77 655.78-35.2 658.58-36.5 661.38-37.8 665.08-37.8L665.08-37.8Q668.58-37.8 670.96-36.73 673.33-35.65 676.03-33.45L676.03-33.45Q676.08-33.4 676.23-33.4L676.23-33.4Q676.48-33.4 676.81-33.58 677.13-33.75 677.33-33.95L677.33-33.95 677.98-33.3 671.78-27.2 671.13-27.9Q671.38-28.15 671.51-28.48 671.63-28.8 671.43-28.95L671.43-28.95Q668.18-31.55 664.98-31.55L664.98-31.55Q662.43-31.55 660.93-30.38 659.43-29.2 659.43-27.4L659.43-27.4Q659.43-25.8 660.26-24.95 661.08-24.1 662.78-23.5L662.78-23.5 668.83-21.3Q671.98-20.15 674.08-18.88 676.18-17.6 677.43-15.53 678.68-13.45 678.68-10.35L678.68-10.35Q678.68-7.35 677.11-4.78 675.53-2.2 672.46-0.63 669.38 0.95 665.18 0.95L665.18 0.95ZM698.03-23.6Q701.58-23.6 704.38-22.08 707.18-20.55 708.76-17.78 710.33-15 710.33-11.4L710.33-11.4Q710.33-7.75 708.76-5 707.18-2.25 704.36-0.75 701.53 0.75 697.88 0.75L697.88 0.75Q693.73 0.75 690.43-2.05L690.43-2.05 690.43 13.05Q690.43 13.3 690.81 13.45 691.18 13.6 691.53 13.6L691.53 13.6 691.53 14.55 683.08 14.55 683.08 13.6Q683.43 13.6 683.81 13.45 684.18 13.3 684.18 13.05L684.18 13.05 684.18-21.5Q684.18-21.75 683.81-21.9 683.43-22.05 683.08-22.05L683.08-22.05 683.08-23 690.43-23 690.43-20.9Q693.83-23.6 698.03-23.6L698.03-23.6ZM697.38-4.6Q700.33-4.6 702.33-6.4 704.33-8.2 704.33-11.3L704.33-11.3Q704.33-14.3 702.38-16.23 700.43-18.15 697.38-18.15L697.38-18.15Q694.23-18.15 692.26-16.23 690.28-14.3 690.28-11.25L690.28-11.25Q690.28-9.55 691.21-8 692.13-6.45 693.76-5.53 695.38-4.6 697.38-4.6L697.38-4.6ZM726.03-24.05Q729.88-24.05 732.68-22.38 735.48-20.7 736.93-17.85 738.38-15 738.38-11.55L738.38-11.55Q738.38-10.5 738.23-9.45L738.23-9.45 719.93-9.45Q720.13-7.05 722.03-5.7 723.93-4.35 726.58-4.35L726.58-4.35Q728.38-4.35 729.6-4.85 730.83-5.35 731.78-6.35L731.78-6.35Q731.88-6.55 731.88-6.6L731.88-6.6Q731.88-6.8 731.73-7.03 731.58-7.25 731.43-7.35L731.43-7.35 732.03-8.1 737.58-3.75 737.03-3Q736.28-3.45 735.98-3.1L735.98-3.1Q732.48 1.1 726.58 1.1L726.58 1.1Q722.78 1.1 719.88-0.58 716.98-2.25 715.4-5.08 713.83-7.9 713.83-11.35L713.83-11.35Q713.83-15 715.38-17.9 716.93-20.8 719.7-22.43 722.48-24.05 726.03-24.05L726.03-24.05ZM719.98-14.1L732.38-14.1Q732.18-16.15 730.3-17.57 728.43-19 726.08-19L726.08-19Q723.73-19 722.03-17.57 720.33-16.15 719.98-14.1L719.98-14.1ZM766.98-13.45L766.98-1.5Q766.98-1.25 767.35-1.1 767.73-0.95 768.13-0.95L768.13-0.95 768.13 0 759.33 0 759.33-0.95Q759.73-0.95 760.1-1.1 760.48-1.25 760.48-1.5L760.48-1.5 760.48-11.9Q760.48-14.45 759.23-16.28 757.98-18.1 755.48-18.1L755.48-18.1Q752.93-18.1 751.35-16.4 749.78-14.7 749.78-11.5L749.78-11.5 749.78-1.5Q749.78-1.25 750.15-1.1 750.53-0.95 750.93-0.95L750.93-0.95 750.93 0 742.18 0 742.18-0.95Q742.58-0.95 742.95-1.1 743.33-1.25 743.33-1.5L743.33-1.5 743.33-21.5Q743.33-21.75 742.95-21.9 742.58-22.05 742.23-22.05L742.23-22.05 742.23-23 749.78-23 749.78-20.95Q751.08-22.15 752.85-22.83 754.63-23.5 756.48-23.5L756.48-23.5Q759.68-23.5 762.05-22.15 764.43-20.8 765.7-18.53 766.98-16.25 766.98-13.45L766.98-13.45ZM798.17-36L798.17-1.5Q798.17-1.25 798.55-1.1 798.92-0.95 799.27-0.95L799.27-0.95 799.27 0 792.12 0 792.12-1.75Q789.12 0.7 784.97 0.7L784.97 0.7Q781.27 0.7 778.37-0.8 775.47-2.3 773.82-5.05 772.17-7.8 772.17-11.4L772.17-11.4Q772.17-15.05 773.85-17.88 775.52-20.7 778.45-22.28 781.37-23.85 784.97-23.85L784.97-23.85Q789.12-23.85 792.12-21.5L792.12-21.5 792.12-36Q792.12-36.25 791.77-36.4 791.42-36.55 791.07-36.55L791.07-36.55 791.07-37.5 799.22-37.5 799.22-36.55Q798.87-36.55 798.52-36.4 798.17-36.25 798.17-36L798.17-36ZM785.27-4.65Q787.22-4.65 788.85-5.55 790.47-6.45 791.4-7.98 792.32-9.5 792.32-11.2L792.32-11.2Q792.32-14.25 790.35-16.23 788.37-18.2 785.27-18.2L785.27-18.2Q782.17-18.2 780.2-16.28 778.22-14.35 778.22-11.3L778.22-11.3Q778.22-8.25 780.25-6.45 782.27-4.65 785.27-4.65L785.27-4.65ZM809.12-27.2Q807.52-27.2 806.4-28.3 805.27-29.4 805.27-31.05L805.27-31.05Q805.27-32.6 806.4-33.73 807.52-34.85 809.12-34.85L809.12-34.85Q810.72-34.85 811.82-33.73 812.92-32.6 812.92-31.05L812.92-31.05Q812.92-29.4 811.82-28.3 810.72-27.2 809.12-27.2L809.12-27.2ZM805.87-21.5Q805.87-21.75 805.5-21.9 805.12-22.05 804.77-22.05L804.77-22.05 804.77-23 813.37-23 813.37-22.05Q813.02-22.05 812.65-21.9 812.27-21.75 812.27-21.5L812.27-21.5 812.27-1.5Q812.27-1.25 812.65-1.1 813.02-0.95 813.37-0.95L813.37-0.95 813.37 0 804.77 0 804.77-0.95Q805.12-0.95 805.5-1.1 805.87-1.25 805.87-1.5L805.87-1.5 805.87-21.5ZM843.47-13.45L843.47-1.5Q843.47-1.25 843.84-1.1 844.22-0.95 844.62-0.95L844.62-0.95 844.62 0 835.82 0 835.82-0.95Q836.22-0.95 836.59-1.1 836.97-1.25 836.97-1.5L836.97-1.5 836.97-11.9Q836.97-14.45 835.72-16.28 834.47-18.1 831.97-18.1L831.97-18.1Q829.42-18.1 827.84-16.4 826.27-14.7 826.27-11.5L826.27-11.5 826.27-1.5Q826.27-1.25 826.64-1.1 827.02-0.95 827.42-0.95L827.42-0.95 827.42 0 818.67 0 818.67-0.95Q819.07-0.95 819.44-1.1 819.82-1.25 819.82-1.5L819.82-1.5 819.82-21.5Q819.82-21.75 819.44-21.9 819.07-22.05 818.72-22.05L818.72-22.05 818.72-23 826.27-23 826.27-20.95Q827.57-22.15 829.34-22.83 831.12-23.5 832.97-23.5L832.97-23.5Q836.17-23.5 838.54-22.15 840.92-20.8 842.19-18.53 843.47-16.25 843.47-13.45L843.47-13.45ZM868.62-23L875.97-23 875.97-22.05Q875.62-22.05 875.24-21.9 874.87-21.75 874.87-21.5L874.87-21.5 874.92 1.85Q874.92 8.1 871.32 11.53 867.72 14.95 861.52 14.95L861.52 14.95Q858.97 14.95 856.12 13.53 853.27 12.1 850.87 9.3L850.87 9.3Q850.82 9.15 850.57 9.15L850.57 9.15Q850.17 9.15 849.72 9.5L849.72 9.5 849.17 8.75 855.42 3.8 856.02 4.55Q855.77 4.75 855.54 5.1 855.32 5.45 855.47 5.7L855.47 5.7Q856.72 7.45 858.17 8.3 859.62 9.15 861.67 9.15L861.67 9.15Q864.92 9.15 866.77 7.58 868.62 6 868.62 2.8L868.62 2.8 868.62-1.75Q865.47 0.7 861.37 0.7L861.37 0.7Q857.67 0.7 854.79-0.83 851.92-2.35 850.29-5.13 848.67-7.9 848.67-11.5L848.67-11.5Q848.67-15.1 850.37-17.82 852.07-20.55 854.97-22.03 857.87-23.5 861.37-23.5L861.37-23.5Q865.57-23.5 868.62-21.2L868.62-21.2 868.62-23ZM861.67-4.65Q865.07-4.65 866.92-6.48 868.77-8.3 868.77-11.3L868.77-11.3Q868.77-14.3 866.77-16.25 864.77-18.2 861.67-18.2L861.67-18.2Q858.67-18.2 856.69-16.3 854.72-14.4 854.72-11.4L854.72-11.4Q854.72-8.3 856.72-6.48 858.72-4.65 861.67-4.65L861.67-4.65ZM889.76-11.7Q889.76-11.45 890.11-11.3 890.46-11.15 890.76-11.15L890.76-11.15 890.76-10.2 882.56-10.2 882.56-11.15Q882.86-11.15 883.21-11.3 883.56-11.45 883.56-11.7L883.56-11.7 882.86-37.85Q882.86-38.1 882.39-38.25 881.91-38.4 881.46-38.4L881.46-38.4 881.46-39.35 891.86-39.35 891.86-38.4Q891.41-38.4 890.94-38.25 890.46-38.1 890.46-37.85L890.46-37.85 889.76-11.7ZM886.61-6.35Q888.61-6.35 889.99-4.95 891.36-3.55 891.36-1.55L891.36-1.55Q891.36 0.4 889.96 1.8 888.56 3.2 886.56 3.2L886.56 3.2Q884.61 3.2 883.24 1.8 881.86 0.4 881.86-1.55L881.86-1.55Q881.86-3.6 883.24-4.98 884.61-6.35 886.61-6.35L886.61-6.35Z" opacity="1" transform="matrix(1,0,0,1,0,0)" fill="#000000" class="slogan-text-1" data-fill-palette-color="secondary" id="text-1"></path></svg></g></svg></g></svg></g></svg></g><g transform="matrix(1,0,0,1,453.2118474814861,0.35239504729686644)"><svg viewBox="0 0 136.340912613217 140.95801891874976" height="140.95801891874976" width="136.340912613217"><g><svg xmlns="http://www.w3.org/2000/svg" xmlns:xlink="http://www.w3.org/1999/xlink" version="1.1" x="0" y="0" viewBox="1.5274706178553634 0 96.19152938214464 99.449" enable-background="new 0 0 100 100" xml:space="preserve" height="140.95801891874976" width="136.340912613217" class="icon-icon-0" data-fill-palette-color="accent" id="icon-0"><path fill-rule="evenodd" clip-rule="evenodd" d="M71.567 15.476L59.975 0 19.417 29.243H35.77zM82.479 29.243L77.854 16.735 43.142 29.243zM84.913 27.716H91.553C93.452 27.716 94.674 29.196 94.674 31.089V52.287L97.666 50.792 97.636 29.495C97.636 27.595 94.98 24.664 93.08 24.664H83.701L84.761 27.518zM94.674 76.706V94.136C96.406 93.952 97.719 92.397 97.719 90.618L97.696 75.195zM7.939 27.716H16.723L20.981 24.664H11.015L11.084 24.641C3.712 24.634 1.46 24.718 1.529 33.89V95.93C1.529 97.831 3.422 99.449 5.322 99.449H88.501C90.4 99.449 92.309 97.884 92.309 95.992L92.302 79.426 91.935 79.609H84.304C77.558 79.609 72.093 74.145 72.093 67.399S77.558 55.19 84.304 55.19H91.935L92.293 55.006 92.285 34.218C92.285 32.318 90.4 30.769 88.501 30.769H11.008A5.5 5.5 0 0 1 10.252 30.708H8.374A1.53 1.53 0 0 1 6.848 29.182 1.52 1.52 0 0 1 7.939 27.716M91.935 58.24H84.304A9.154 9.154 0 0 0 75.146 67.397 9.155 9.155 0 0 0 84.304 76.554H91.935L97.673 71.739 97.65 53.547zM79.725 67.397A4.58 4.58 0 0 1 84.304 62.82 4.58 4.58 0 0 1 88.882 67.397 4.583 4.583 0 0 1 84.304 71.976 4.58 4.58 0 0 1 79.725 67.397" fill="#000000" data-fill-palette-color="accent"></path></svg></g></svg></g></svg></g><defs></defs></svg><rect width="395.52" height="95.03894818838121" fill="none" stroke="none" visibility="hidden"></rect></g></svg></g></svg>